{"title":"jag.s02.season.2.dvdrip.xvid-saints","uid":5282717,"size":5503398927,"categoryP":"video","categoryS":"tv_shows","magnet":"?xt=urn:btih:b6591cc095340df95b9bc2b690536c981f092202&amp;dn=jag.s02.season.2.dvdrip.xvid-saints&amp;tr=udp%3A%2F%2Ftracker.openbittorrent.com%3A80&amp;tr=udp%3A%2F%2Fopen.demonii.com%3A1337&amp;tr=udp%3A%2F%2Ftracker.coppersurfer.tk%3A6969&amp;tr=udp%3A%2F%2Fexodus.desync.com%3A6969","seeders":1,"leechers":1,"uploader":"thefizdude","files":30,"time":1263605027,"description":"Season 1: http://thepiratebay.se/torrent/5150860\nSeason 2: http://thepiratebay.se/torrent/5282717\nSeason 3: http://thepiratebay.se/torrent/5282718\nSeason 4: http://thepiratebay.se/torrent/5290267\nSeason 5: \nSeason 6:\nSeason 7:\nSeason 8:\nSeason 9:\nSeason 10:\n\n\nGeneral\nComplete name                    : jag.s02e01.dvdrip.xvid-saints.avi\nFormat                           : AVI\nFormat/Info                      : Audio Video Interleave\nFile size                        : 350 MiB\nDuration                         : 46mn 9s\nOverall bit rate                 : 1 060 Kbps\nWriting application              : Nandub v1.0rc2\nWriting library                  : Nandub build 1852/release\n\nVideo\nID                               : 0\nFormat                           : MPEG-4 Visual\nFormat profile                   : AdvancedSimple@L5\nFormat settings, BVOP            : Yes\nFormat settings, QPel            : No\nFormat settings, GMC             : No warppoints\nFormat settings, Matrix          : Default (H.263)\nMuxing mode                      : Packed bitstream\nCodec ID                         : XVID\nCodec ID/Hint                    : XviD\nDuration                         : 46mn 9s\nBit rate                         : 901 Kbps\nWidth                            : 544 pixels\nHeight                           : 400 pixels\nDisplay aspect ratio             : 4:3\nFrame rate                       : 23.976 fps\nResolution                       : 24 bits\nColorimetry                      : 4:2:0\nScan type                        : Progressive\nBits/(Pixel*Frame)               : 0.173\nStream size                      : 297 MiB (85%)\nWriting library                  : XviD 1.2.0SMP (UTC 2006-01-08)\n\nAudio\nID                               : 1\nFormat                           : MPEG Audio\nFormat version                   : Version 1\nFormat profile                   : Layer 3\nCodec ID                         : 55\nCodec ID/Hint                    : MP3\nDuration                         : 46mn 9s\nBit rate mode                    : Variable\nBit rate                         : 147 Kbps\nChannel(s)                       : 2 channels\nSampling rate                    : 48.0 KHz\nResolution                       : 16 bits\nStream size                      : 48.5 MiB (14%)\nAlignment                        : Aligned on interleaves\nInterleave, duration             : 24 ms (0.58 video frame)\nInterleave, preload duration     : 536 ms\nWriting library                  : LAME3.93 \nEncoding settings                : -m j -V 1 -q 2 -lowpass 19.5 --vbr-new\n\n","torrent":{"xt":"urn:btih:b6591cc095340df95b9bc2b690536c981f092202","amp;dn":"jag.s02.season.2.dvdrip.xvid-saints","amp;tr":["udp%3A%2F%2Ftracker.openbittorrent.com%3A80","udp%3A%2F%2Fopen.demonii.com%3A1337","udp%3A%2F%2Ftracker.coppersurfer.tk%3A6969","udp%3A%2F%2Fexodus.desync.com%3A6969"],"infoHash":"b6591cc095340df95b9bc2b690536c981f092202","infoHashBuffer":{"type":"Buffer","data":[182,89,28,192,149,52,13,249,91,155,194,182,144,83,108,152,31,9,34,2]},"announce":[],"urlList":[]}}